<svg xmlns="http://www.w3.org/2000/svg" width="860" height="269" viewBox="0 0 860 269" role="img" aria-labelledby="title desc">
<title id="title">Public GitHub activity</title><desc id="desc">Public non-fork repositories, their stars, followers, and language share by code bytes. Updated 2026-10-08 11:04 UTC</desc>
<style>text { font-family: 'Segoe UI', Arial, sans-serif; } .mono { font-family: Consolas, 'Liberation Mono', monospace; } .display { font-family: 'Arial Black', 'Segoe UI', Arial, sans-serif; } @media (prefers-reduced-motion: reduce) { .typed { clip-path: none; } .motion,.cursor { display: none; } }</style>
<rect x="0.5" y="0.5" width="859" height="268" rx="10" fill="#090d18" stroke="#273659"/>
<text x="26" y="34" font-size="11" fill="#45e8ff" font-weight="600" class="mono" letter-spacing="1.5">04 / PUBLIC SIGNAL</text><text x="832" y="34" font-size="11" fill="#a0b4d1" font-weight="400" class="mono" text-anchor="end">Updated 2026-10-08 11:04 UTC</text><rect x="26" y="49" width="257" height="81" rx="4" fill="#111a2d"/><path d="M26 64 V115" stroke="#45e8ff" stroke-opacity="0.6" stroke-width="2"/><text x="42" y="93" font-size="39" fill="#eff6ff" font-weight="700" class="mono">31</text><text x="43" y="115" font-size="12" fill="#a0b4d1" font-weight="400" >Original public repos</text><rect x="301" y="49" width="257" height="81" rx="4" fill="#111a2d"/><path d="M301 64 V115" stroke="#45e8ff" stroke-opacity="0.6" stroke-width="2"/><text x="317" y="93" font-size="39" fill="#eff6ff" font-weight="700" class="mono">26</text><text x="318" y="115" font-size="12" fill="#a0b4d1" font-weight="400" >Stars on original repos</text><rect x="577" y="49" width="257" height="81" rx="4" fill="#111a2d"/><path d="M577 64 V115" stroke="#45e8ff" stroke-opacity="0.6" stroke-width="2"/><text x="593" y="93" font-size="39" fill="#eff6ff" font-weight="700" class="mono">2</text><text x="594" y="115" font-size="12" fill="#a0b4d1" font-weight="400" >Followers</text><path d="M26 138 H834" stroke="#273659"/><text x="26" y="163" font-size="11" fill="#ad82ff" font-weight="600" class="mono" letter-spacing="1.5">LANGUAGE DISTRIBUTION</text><rect x="26.00" y="179" width="300.84" height="12" fill="#25bedb"/><rect x="326.84" y="179" width="166.94" height="12" fill="#ad82ff"/><rect x="493.78" y="179" width="80.08" height="12" fill="#588bff"/><rect x="573.86" y="179" width="61.93" height="12" fill="#ef7b70"/><rect x="635.79" y="179" width="48.98" height="12" fill="#ddab7a"/><rect x="684.76" y="179" width="149.24" height="12" fill="#88919b"/><circle cx="30" cy="213" r="4" fill="#25bedb"/><text x="42" y="217" font-size="13" fill="#eff6ff" font-weight="400" >Python  37.2%</text><circle cx="307" cy="213" r="4" fill="#ad82ff"/><text x="319" y="217" font-size="13" fill="#eff6ff" font-weight="400" >Jupyter Notebook  20.7%</text><circle cx="584" cy="213" r="4" fill="#588bff"/><text x="596" y="217" font-size="13" fill="#eff6ff" font-weight="400" >TypeScript  9.9%</text><circle cx="30" cy="240" r="4" fill="#ef7b70"/><text x="42" y="244" font-size="13" fill="#eff6ff" font-weight="400" >Swift  7.7%</text><circle cx="307" cy="240" r="4" fill="#ddab7a"/><text x="319" y="244" font-size="13" fill="#eff6ff" font-weight="400" >Rust  6.1%</text><circle cx="584" cy="240" r="4" fill="#88919b"/><text x="596" y="244" font-size="13" fill="#eff6ff" font-weight="400" >Other  18.5%</text></svg>
