<svg xmlns="http://www.w3.org/2000/svg" width="860" height="530" viewBox="0 0 860 530" role="img" aria-labelledby="title desc">
<title id="title">Julian Cooper — The Builder’s Atlas</title><desc id="desc">Original architectural atlas illustration. Useful ideas. Made real. AI agents, desktop tools, and software for everyday work.</desc>
<style>text { font-family: 'Segoe UI', Arial, sans-serif; } .mono { font-family: Consolas, 'Liberation Mono', monospace; } .serif { font-family: Georgia, 'Times New Roman', serif; } @media (prefers-reduced-motion: reduce) { .motion { display: none; } }</style>
<defs><pattern id="paper" width="6" height="6" patternUnits="userSpaceOnUse"><circle cx="1" cy="1" r=".45" fill="#eee9d9" opacity=".08"/></pattern><clipPath id="canvas"><rect width="860" height="530"/></clipPath></defs>
<g clip-path="url(#canvas)"><rect width="860" height="530" fill="#152925"/><rect width="860" height="530" fill="url(#paper)"/><text x="32" y="37" font-size="19" fill="#eee9d9" font-weight="800" letter-spacing="-1">JC</text><path d="M70 18 L70 44" fill="none" stroke="#40574b" /><text x="86" y="35" font-size="13" fill="#eee9d9" font-weight="700" letter-spacing="2">JULIAN COOPER</text><text x="828" y="35" font-size="11" fill="#b1baaa" font-weight="400" class="mono" text-anchor="end">LEDGENDARYANIMAL / FIELD NOTES</text><path d="M32 57 L828 57" fill="none" stroke="#40574b" /><text x="31" y="125" font-size="67" fill="#eee9d9" font-weight="700" letter-spacing="-3">Useful ideas.</text><text x="31" y="190" font-size="70" fill="#ff865e" font-weight="400" class="serif" font-style="italic" letter-spacing="-2.5">Made real.</text><text x="568" y="101" font-size="11" fill="#ff865e" font-weight="600" class="mono" letter-spacing="1.3">THE BUILDER’S ATLAS</text><text x="568" y="127" font-size="16" fill="#eee9d9" font-weight="400" >AI agents. Desktop tools.</text><text x="568" y="150" font-size="16" fill="#eee9d9" font-weight="400" >Software for everyday work.</text><text x="568" y="185" font-size="11" fill="#b1baaa" font-weight="500" class="mono" letter-spacing="1">EXPLORE THE WORK ↓</text><path d="M0 230 H860 V468 H0 Z" fill="#1c342e"/><path d="M-70 239 C100 143 184 315 350 230 S575 139 925 297" fill="none" stroke="#a9c2a4" stroke-opacity=".18" stroke-width=".8"/><path d="M-70 252 C100 156 184 328 350 243 S575 152 925 310" fill="none" stroke="#a9c2a4" stroke-opacity=".18" stroke-width=".8"/><path d="M-70 265 C100 169 184 341 350 256 S575 165 925 323" fill="none" stroke="#a9c2a4" stroke-opacity=".18" stroke-width=".8"/><path d="M-70 278 C100 182 184 354 350 269 S575 178 925 336" fill="none" stroke="#a9c2a4" stroke-opacity=".18" stroke-width=".8"/><path d="M-70 291 C100 195 184 367 350 282 S575 191 925 349" fill="none" stroke="#a9c2a4" stroke-opacity=".18" stroke-width=".8"/><path d="M-70 304 C100 208 184 380 350 295 S575 204 925 362" fill="none" stroke="#a9c2a4" stroke-opacity=".18" stroke-width=".8"/><path d="M-70 317 C100 221 184 393 350 308 S575 217 925 375" fill="none" stroke="#a9c2a4" stroke-opacity=".18" stroke-width=".8"/><path d="M-70 330 C100 234 184 406 350 321 S575 230 925 388" fill="none" stroke="#a9c2a4" stroke-opacity=".18" stroke-width=".8"/><path d="M-70 343 C100 247 184 419 350 334 S575 243 925 401" fill="none" stroke="#a9c2a4" stroke-opacity=".18" stroke-width=".8"/><path d="M-70 356 C100 260 184 432 350 347 S575 256 925 414" fill="none" stroke="#a9c2a4" stroke-opacity=".18" stroke-width=".8"/><path d="M-70 369 C100 273 184 445 350 360 S575 269 925 427" fill="none" stroke="#a9c2a4" stroke-opacity=".18" stroke-width=".8"/><path d="M-70 382 C100 286 184 458 350 373 S575 282 925 440" fill="none" stroke="#a9c2a4" stroke-opacity=".18" stroke-width=".8"/><path d="M-70 395 C100 299 184 471 350 386 S575 295 925 453" fill="none" stroke="#a9c2a4" stroke-opacity=".18" stroke-width=".8"/><path d="M-70 408 C100 312 184 484 350 399 S575 308 925 466" fill="none" stroke="#a9c2a4" stroke-opacity=".18" stroke-width=".8"/><path d="M-70 421 C100 325 184 497 350 412 S575 321 925 479" fill="none" stroke="#a9c2a4" stroke-opacity=".18" stroke-width=".8"/><path d="M-70 434 C100 338 184 510 350 425 S575 334 925 492" fill="none" stroke="#a9c2a4" stroke-opacity=".18" stroke-width=".8"/><path d="M-70 447 C100 351 184 523 350 438 S575 347 925 505" fill="none" stroke="#a9c2a4" stroke-opacity=".18" stroke-width=".8"/><path d="M-70 460 C100 364 184 536 350 451 S575 360 925 518" fill="none" stroke="#a9c2a4" stroke-opacity=".18" stroke-width=".8"/><path d="M-70 473 C100 377 184 549 350 464 S575 373 925 531" fill="none" stroke="#a9c2a4" stroke-opacity=".18" stroke-width=".8"/><path d="M-70 486 C100 390 184 562 350 477 S575 386 925 544" fill="none" stroke="#a9c2a4" stroke-opacity=".18" stroke-width=".8"/><path d="M32 230 L-63 468" fill="none" stroke="#40574b" stroke-opacity=".15"/><path d="M112 230 L17 468" fill="none" stroke="#40574b" stroke-opacity=".15"/><path d="M192 230 L97 468" fill="none" stroke="#40574b" stroke-opacity=".15"/><path d="M272 230 L177 468" fill="none" stroke="#40574b" stroke-opacity=".15"/><path d="M352 230 L257 468" fill="none" stroke="#40574b" stroke-opacity=".15"/><path d="M432 230 L337 468" fill="none" stroke="#40574b" stroke-opacity=".15"/><path d="M512 230 L417 468" fill="none" stroke="#40574b" stroke-opacity=".15"/><path d="M592 230 L497 468" fill="none" stroke="#40574b" stroke-opacity=".15"/><path d="M672 230 L577 468" fill="none" stroke="#40574b" stroke-opacity=".15"/><path d="M752 230 L657 468" fill="none" stroke="#40574b" stroke-opacity=".15"/><path d="M832 230 L737 468" fill="none" stroke="#40574b" stroke-opacity=".15"/><path d="M77 383 L257 298 L427 380 L628 283 L775 354" fill="none" stroke="#ff865e" stroke-width="2" stroke-dasharray="5 6"/><path class="motion" d="M77 383 L257 298 L427 380 L628 283 L775 354" fill="none" stroke="#ff865e" stroke-width="3" stroke-dasharray="3 500"><animate attributeName="stroke-dashoffset" from="0" to="-1006" dur="16s" repeatCount="indefinite"/></path><path d="M122 335 l115 -55.199999999999996 l88 42.239999999999995 l-115 55.199999999999996 Z" fill="#e9e6cd" stroke="#213e32" stroke-width="1.2"/><path d="M122 335 l88 42.239999999999995 v34 l-88 -42.239999999999995 Z" fill="#657f69" stroke="#213e32" stroke-width="1.2"/><path d="M210 377.24 l115 -55.199999999999996 v34 l-115 55.199999999999996 Z" fill="#334f43" stroke="#213e32" stroke-width="1.2"/><path d="M139 305 l80 -38.4 l66 31.68 l-80 38.4 Z" fill="#afc3a4" stroke="#213e32" stroke-width="1.2"/><path d="M139 305 l66 31.68 v25 l-66 -31.68 Z" fill="#657f69" stroke="#213e32" stroke-width="1.2"/><path d="M205 336.68 l80 -38.4 v25 l-80 38.4 Z" fill="#334f43" stroke="#213e32" stroke-width="1.2"/><path d="M156 274 l46 -22.08 l43 20.64 l-46 22.08 Z" fill="#ec926b" stroke="#213e32" stroke-width="1.2"/><path d="M156 274 l43 20.64 v23 l-43 -20.64 Z" fill="#b65538" stroke="#213e32" stroke-width="1.2"/><path d="M199 294.64 l46 -22.08 v23 l-46 22.08 Z" fill="#7e3d29" stroke="#213e32" stroke-width="1.2"/><path d="M169 272 l32 -15 l17 8 l-32 15 Z" fill="none" stroke="#823e2a" stroke-width="1.2"/><path d="M175 272 l24 -11 M183 276 l24 -12" stroke="#823e2a"/><path d="M130 354 l67 32 M130 360 l67 32 M130 366 l67 32" stroke="#c2cdae" opacity=".32"/><path d="M225 330.0 L225 347.0" fill="none" stroke="#a9c2a4" stroke-width="2"/><path d="M234 325.7 L234 342.7" fill="none" stroke="#a9c2a4" stroke-width="2"/><path d="M243 321.4 L243 338.4" fill="none" stroke="#a9c2a4" stroke-width="2"/><path d="M252 317.1 L252 334.1" fill="none" stroke="#a9c2a4" stroke-width="2"/><path d="M261 312.8 L261 329.8" fill="none" stroke="#a9c2a4" stroke-width="2"/><path d="M340 386 l131 -62.879999999999995 l92 44.16 l-131 62.879999999999995 Z" fill="#e9e6cd" stroke="#213e32" stroke-width="1.2"/><path d="M340 386 l92 44.16 v16 l-92 -44.16 Z" fill="#657f69" stroke="#213e32" stroke-width="1.2"/><path d="M432 430.15999999999997 l131 -62.879999999999995 v16 l-131 62.879999999999995 Z" fill="#334f43" stroke="#213e32" stroke-width="1.2"/><path d="M358 355 l97 -46.559999999999995 l70 33.6 l-97 46.559999999999995 Z" fill="#b9c9aa" stroke="#213e32" stroke-width="1.2"/><path d="M358 355 l70 33.6 v11 l-70 -33.6 Z" fill="#657f69" stroke="#213e32" stroke-width="1.2"/><path d="M428 388.6 l97 -46.559999999999995 v11 l-97 46.559999999999995 Z" fill="#334f43" stroke="#213e32" stroke-width="1.2"/><path d="M360 381 l53 25 M360 386 l53 25" stroke="#e9e6cd" opacity=".45"/><path d="M464 380 l30 -15 m-21 20 l29 -14" stroke="#8ca785" stroke-width="2"/><path d="M396 332 L453 305 L492 324 L435 351 Z" fill="#263e32" stroke="#e8e6cf"/><path d="M405 328.0 l39 -19" stroke="#ec926b" stroke-width="2"/><path d="M414 332.3 l39 -19" stroke="#ec926b" stroke-width="2"/><path d="M423 336.6 l39 -19" stroke="#ec926b" stroke-width="2"/><path d="M432 340.9 l39 -19" stroke="#ec926b" stroke-width="2"/><path d="M370 344 V316 M467 299 V274 M522 347 V319" stroke="#a9c2a4" stroke-dasharray="3 4"/><path d="M576 324 l129 -61.919999999999995 l98 47.04 l-129 61.919999999999995 Z" fill="#e9e6cd" stroke="#213e32" stroke-width="1.2"/><path d="M576 324 l98 47.04 v24 l-98 -47.04 Z" fill="#657f69" stroke="#213e32" stroke-width="1.2"/><path d="M674 371.04 l129 -61.919999999999995 v24 l-129 61.919999999999995 Z" fill="#334f43" stroke="#213e32" stroke-width="1.2"/><path d="M596 306.0 l14 -6.72 l53 25.439999999999998 l-14 6.72 Z" fill="#bccbaa" stroke="#213e32" stroke-width="1.2"/><path d="M596 306.0 l53 25.439999999999998 v41 l-53 -25.439999999999998 Z" fill="#9bb08d" stroke="#213e32" stroke-width="1.2"/><path d="M649 331.44 l14 -6.72 v41 l-14 6.72 Z" fill="#526e55" stroke="#213e32" stroke-width="1.2"/><path d="M602 322.0 l33 16 m-33 -10 l33 16" stroke="#e9e6cd" stroke-opacity=".4"/><path d="M615 296.9 l14 -6.72 l53 25.439999999999998 l-14 6.72 Z" fill="#bccbaa" stroke="#213e32" stroke-width="1.2"/><path d="M615 296.9 l53 25.439999999999998 v41 l-53 -25.439999999999998 Z" fill="#9bb08d" stroke="#213e32" stroke-width="1.2"/><path d="M668 322.34 l14 -6.72 v41 l-14 6.72 Z" fill="#526e55" stroke="#213e32" stroke-width="1.2"/><path d="M621 312.9 l33 16 m-33 -10 l33 16" stroke="#e9e6cd" stroke-opacity=".4"/><path d="M634 287.8 l14 -6.72 l53 25.439999999999998 l-14 6.72 Z" fill="#ead5a2" stroke="#213e32" stroke-width="1.2"/><path d="M634 287.8 l53 25.439999999999998 v41 l-53 -25.439999999999998 Z" fill="#9bb08d" stroke="#213e32" stroke-width="1.2"/><path d="M687 313.24 l14 -6.72 v41 l-14 6.72 Z" fill="#526e55" stroke="#213e32" stroke-width="1.2"/><path d="M640 303.8 l33 16 m-33 -10 l33 16" stroke="#e9e6cd" stroke-opacity=".4"/><path d="M653 278.7 l14 -6.72 l53 25.439999999999998 l-14 6.72 Z" fill="#bccbaa" stroke="#213e32" stroke-width="1.2"/><path d="M653 278.7 l53 25.439999999999998 v41 l-53 -25.439999999999998 Z" fill="#9bb08d" stroke="#213e32" stroke-width="1.2"/><path d="M706 304.14 l14 -6.72 v41 l-14 6.72 Z" fill="#526e55" stroke="#213e32" stroke-width="1.2"/><path d="M659 294.7 l33 16 m-33 -10 l33 16" stroke="#e9e6cd" stroke-opacity=".4"/><path d="M601 257 l85 -40.8 l26 12.48 l-85 40.8 Z" fill="#f09c73" stroke="#213e32" stroke-width="1.2"/><path d="M601 257 l26 12.48 v10 l-26 -12.48 Z" fill="#b96344" stroke="#213e32" stroke-width="1.2"/><path d="M627 269.48 l85 -40.8 v10 l-85 40.8 Z" fill="#85442e" stroke="#213e32" stroke-width="1.2"/><path d="M72 277 H88 M80 269 V285" stroke="#ff865e" stroke-width="1.4"/><path d="M776 410 H792 M784 402 V418" stroke="#ff865e" stroke-width="1.4"/><text x="62" y="448" font-size="10" fill="#b1baaa" font-weight="600" class="mono" letter-spacing="1">01 / INTELLIGENCE</text><text x="346" y="448" font-size="10" fill="#b1baaa" font-weight="600" class="mono" letter-spacing="1">02 / INTERACTION</text><text x="626" y="448" font-size="10" fill="#b1baaa" font-weight="600" class="mono" letter-spacing="1">03 / DELIVERY</text><path d="M32 484 L828 484" fill="none" stroke="#40574b" /><text x="32" y="508" font-size="11" fill="#b1baaa" font-weight="500" class="mono" letter-spacing=".8">FROM THE FIRST PROTOTYPE TO THE DAILY WORKFLOW</text><text x="828" y="508" font-size="11" fill="#ff865e" font-weight="600" class="mono" text-anchor="end">DESIGN / BUILD / SHIP</text></g></svg>
